# xmcd CD database file
#
# Track frame offsets:
#	182
#	18632
#	31962
#	50727
#	66425
#	80925
#	95930
#	112505
#	129927
#	152955
#	167407
#	184782
#	199325
#	212812
#	227787
#	246337
#
# Disc length: 3572 seconds
#
# Revision: 2
# Processed by: cddbd v1.5.1PL0 Copyright (c) Steve Scherf et al.
# Submitted via: CDex 1.51
#
DISCID=e70df210
DTITLE=Coolio - It Takes A Thief
DYEAR=1994
DGENRE=Rap
TTITLE0=Fantastic Voyage (Timber Mix)
TTITLE1=County Line
TTITLE2=Mama, I'm in Love Wit a Gangsta
TTITLE3=Hand on My Nutsac
TTITLE4=Ghetto Cartoon
TTITLE5=Smokin' Stix
TTITLE6=Can-O-Corn
TTITLE7=U Know Hoo!
TTITLE8=It Takes A Thief
TTITLE9=Bring Back Somethin Fo Da Hood
TTITLE10=N Da Closet
TTITLE11=On My Way to Harlem
TTITLE12=Sticky Fingers
TTITLE13=Thought You Knew
TTITLE14=Ugly Bitches
TTITLE15=I Remember
EXTD=YEAR: 1994
EXTT0=
EXTT1=
EXTT2=
EXTT3=
EXTT4=
EXTT5=
EXTT6=
EXTT7=
EXTT8=
EXTT9=
EXTT10=
EXTT11=
EXTT12=
EXTT13=
EXTT14=
EXTT15=
PLAYORDER=
